<?xml version="1.0" encoding="UTF-8"?>
<svg version="1.1" xmlns="http://www.w3.org/2000/svg" width="191" height="166">
<path d="M0 0 C63.03 0 126.06 0 191 0 C191 54.78 191 109.56 191 166 C127.97 166 64.94 166 0 166 C0 111.22 0 56.44 0 0 Z " fill="#373736" transform="translate(0,0)"/>
<path d="M0 0 C0 0.66 0 1.32 0 2 C0.72703125 2.11214844 1.4540625 2.22429688 2.203125 2.33984375 C13.33522926 4.9673935 22.82139393 14.65935632 29.00390625 23.82421875 C30.1866613 26.40772684 30.26716565 28.18772999 30 31 C28.875 32.8125 28.875 32.8125 27 34 C24.15234375 34.390625 24.15234375 34.390625 21 34 C18.76171875 31.83984375 18.76171875 31.83984375 16.6875 28.9375 C9.25869959 19.32084988 2.04516929 14.41766839 -10 12 C-21.55707848 10.642159 -31.72414736 14.13137555 -41 21 C-43.27395464 23.16660055 -45.16103731 25.45909888 -47 28 C-47.721875 28.94875 -48.44375 29.8975 -49.1875 30.875 C-54.55420643 40.12794212 -55.76463313 50.02773845 -53.12109375 60.47265625 C-49.26493498 71.35389636 -43.39574568 79.67762721 -33 85 C-29.63200067 86.33936718 -26.25884606 87.58038465 -22.8203125 88.7265625 C-19.73955183 90.11759848 -18.62322181 91.07279 -17 94 C-15.08137381 100.35089554 -16.10026805 106.14663773 -19 112 C-24.65967639 121.62349307 -36.28763107 126.61033202 -46.3125 130.5 C-47.28002197 130.88297241 -47.28002197 130.88297241 -48.26708984 131.27368164 C-53.08526429 133.02826627 -56.9525507 133.46804588 -62 133 C-65.5767715 130.71321167 -66.06529422 127.05252065 -67.15625 123.15625 C-68.08431824 120.78452006 -69.20691974 119.75969845 -71 118 C-71.33 116.824375 -71.66 115.64875 -72 114.4375 C-72.67139937 110.75396564 -72.67139937 110.75396564 -76 109 C-75.67 106.36 -75.34 103.72 -75 101 C-76.918125 100.7834375 -76.918125 100.7834375 -78.875 100.5625 C-81.25692894 100.29357254 -82.84452691 100.07773654 -85 99 C-86.10327549 90.90931306 -81.57836742 84.72843461 -77.82421875 77.84375 C-76.46930247 74.81284723 -76.72250604 72.27442868 -77 69 C-77.73863281 67.46859375 -77.73863281 67.46859375 -78.4921875 65.90625 C-80.54849887 61.284906 -80.49453011 56.80510463 -80.4375 51.8125 C-80.42920166 50.88066895 -80.42090332 49.94883789 -80.41235352 48.98876953 C-80.09660545 36.07793236 -75.6852885 25.1467509 -66.79296875 15.640625 C-62.44902465 11.58529047 -58.53843164 9.06333728 -53 7 C-52.45859375 6.54625 -51.9171875 6.0925 -51.359375 5.625 C-37.34556397 -4.02689634 -15.82638403 -4.52182401 0 0 Z " fill="#E8D899" transform="translate(115,16)"/>
<path d="M0 0 C8.68223189 6.89420789 11.8733516 14.84306559 13.1953125 25.62109375 C13.35773438 26.42675781 13.52015625 27.23242188 13.6875 28.0625 C14.3475 28.3925 15.0075 28.7225 15.6875 29.0625 C15.8125 31.4375 15.8125 31.4375 15.6875 34.0625 C14.6975 35.0525 14.6975 35.0525 13.6875 36.0625 C12.6975 36.0625 11.7075 36.0625 10.6875 36.0625 C10.4090625 37.5165625 10.4090625 37.5165625 10.125 39 C7.65224414 47.42442342 1.5420421 52.70795643 -5.8828125 56.87109375 C-6.68460938 57.26425781 -7.48640625 57.65742187 -8.3125 58.0625 C-9.07433594 58.44019531 -9.83617187 58.81789063 -10.62109375 59.20703125 C-14.17446729 60.33647799 -17.56212638 60.35359051 -21.25 60.3125 C-22.28543945 60.32410156 -22.28543945 60.32410156 -23.34179688 60.3359375 C-31.86768919 60.30361184 -38.54947898 57.04114088 -45.3125 52.0625 C-47.70979331 49.59379795 -49.58268539 47.03218173 -51.3125 44.0625 C-51.6530542 43.49805176 -51.9936084 42.93360352 -52.34448242 42.35205078 C-55.29159958 37.08226683 -55.98549056 32.67995243 -55.875 26.6875 C-55.86476807 25.85114014 -55.85453613 25.01478027 -55.84399414 24.15307617 C-55.61479094 17.48150998 -54.3563436 12.48841673 -50.3125 7.0625 C-49.79300781 6.33804688 -49.27351563 5.61359375 -48.73828125 4.8671875 C-36.60445107 -10.46273315 -15.20088571 -10.77425416 0 0 Z " fill="#454138" transform="translate(121.3125,39.9375)"/>
<path d="M0 0 C1.33417969 -0.00483398 1.33417969 -0.00483398 2.6953125 -0.00976562 C8.24202722 0.03509751 13.0510154 0.75501733 18.375 2.3125 C18.375 2.9725 18.375 3.6325 18.375 4.3125 C19.10203125 4.42464844 19.8290625 4.53679688 20.578125 4.65234375 C31.71022926 7.2798935 41.19639393 16.97185632 47.37890625 26.13671875 C48.5616613 28.72022684 48.64216565 30.50022999 48.375 33.3125 C47.25 35.125 47.25 35.125 45.375 36.3125 C42.52734375 36.703125 42.52734375 36.703125 39.375 36.3125 C37.13671875 34.15234375 37.13671875 34.15234375 35.0625 31.25 C27.63369959 21.63334988 20.42016929 16.73016839 8.375 14.3125 C-3.15966751 12.95729207 -13.37867277 16.4255804 -22.625 23.3125 C-24.83992476 25.50911959 -26.7362387 27.83669127 -28.625 30.3125 C-29.285 30.9725 -29.945 31.6325 -30.625 32.3125 C-30.21047354 21.53481195 -24.36583166 12.43974385 -17.625 4.3125 C-19.605 4.6425 -21.585 4.9725 -23.625 5.3125 C-16.42822072 0.51464715 -8.44864942 -0.15439783 0 0 Z " fill="#D5B963" transform="translate(96.625,13.6875)"/>
<path d="M0 0 C2.46484375 0.3515625 2.46484375 0.3515625 5.46484375 2.3515625 C6.55796875 2.6403125 7.65109375 2.9290625 8.77734375 3.2265625 C14.27207646 4.90292163 17.97983282 6.99139409 20.83984375 12.0390625 C22.8127978 16.49893341 23.29773089 20.54510964 22.46484375 25.3515625 C20.05011763 31.28776421 16.36933712 35.62936101 10.46484375 38.3515625 C4.57149777 39.46052545 -0.76748753 39.24367873 -6.03515625 36.2265625 C-9.48855405 33.62212499 -11.79961431 31.40116037 -13.53515625 27.3515625 C-14.24111063 21.58626841 -14.47984535 16.35430338 -11.97265625 11.0390625 C-11.16828125 10.1521875 -10.36390625 9.2653125 -9.53515625 8.3515625 C-8.99117188 7.64902344 -8.4471875 6.94648437 -7.88671875 6.22265625 C-3.29409553 0.45680832 -3.29409553 0.45680832 0 0 Z " fill="#3F3D37" transform="translate(95.53515625,45.6484375)"/>
<path d="M0 0 C0.68835938 0.28101562 1.37671875 0.56203125 2.0859375 0.8515625 C4.11911926 1.65284325 6.16771172 2.41562621 8.2265625 3.1484375 C9.34804687 3.55320312 10.46953125 3.95796875 11.625 4.375 C12.75164062 4.77460937 13.87828125 5.17421875 15.0390625 5.5859375 C18.15489625 7.0739742 19.35234293 8.01083835 21 11 C22.91862619 17.35089554 21.89973195 23.14663773 19 29 C14.79212597 36.15490494 7.13633867 40.20512377 0 44 C-0.66 44 -1.32 44 -2 44 C-3.2765217 37.22407446 -3.22256598 30.5631508 -3.25 23.6875 C-3.270625 22.40681641 -3.29125 21.12613281 -3.3125 19.80664062 C-3.34251338 12.51714045 -2.79789706 6.75176737 0 0 Z " fill="#D9BD65" transform="translate(77,99)"/>
<path d="M0 0 C8.68223189 6.89420789 11.8733516 14.84306559 13.1953125 25.62109375 C13.35773438 26.42675781 13.52015625 27.23242188 13.6875 28.0625 C14.3475 28.3925 15.0075 28.7225 15.6875 29.0625 C15.8125 31.4375 15.8125 31.4375 15.6875 34.0625 C14.6975 35.0525 14.6975 35.0525 13.6875 36.0625 C12.6975 36.0625 11.7075 36.0625 10.6875 36.0625 C10.4090625 37.5165625 10.4090625 37.5165625 10.125 39 C7.65224414 47.42442342 1.5420421 52.70795643 -5.8828125 56.87109375 C-6.68460938 57.26425781 -7.48640625 57.65742187 -8.3125 58.0625 C-9.07433594 58.44019531 -9.83617187 58.81789063 -10.62109375 59.20703125 C-14.17446729 60.33647799 -17.56212638 60.35359051 -21.25 60.3125 C-22.28543945 60.32410156 -22.28543945 60.32410156 -23.34179688 60.3359375 C-31.86768919 60.30361184 -38.54947898 57.04114088 -45.3125 52.0625 C-47.70979331 49.59379795 -49.58268539 47.03218173 -51.3125 44.0625 C-51.6530542 43.49805176 -51.9936084 42.93360352 -52.34448242 42.35205078 C-55.29159958 37.08226683 -55.98549056 32.67995243 -55.875 26.6875 C-55.86476807 25.85114014 -55.85453613 25.01478027 -55.84399414 24.15307617 C-55.61479094 17.48150998 -54.3563436 12.48841673 -50.3125 7.0625 C-49.79300781 6.33804688 -49.27351563 5.61359375 -48.73828125 4.8671875 C-36.60445107 -10.46273315 -15.20088571 -10.77425416 0 0 Z M-47.3125 8.0625 C-52.59543718 15.87581597 -53.45015117 23.82176742 -52.3125 33.0625 C-50.32970273 41.51854716 -45.78511142 47.95227393 -38.68359375 52.890625 C-29.99433544 57.84269232 -21.670661 58.77402386 -12.00390625 56.171875 C-5.45443245 53.71888856 -0.60511688 50.5952062 3.6875 45.0625 C4.1309375 44.505625 4.574375 43.94875 5.03125 43.375 C7.44781714 39.84811823 7.84968136 37.34437014 7.3125 33.25 C7.16039062 32.50105469 7.00828125 31.75210938 6.8515625 30.98046875 C6.79742187 30.34753906 6.74328125 29.71460938 6.6875 29.0625 C7.3475 28.4025 8.0075 27.7425 8.6875 27.0625 C9.9418783 20.93585232 8.24712092 15.79754983 5.32421875 10.4375 C2.71300154 6.64843064 -0.48410942 3.61476039 -4.3125 1.0625 C-4.9725 1.0625 -5.6325 1.0625 -6.3125 1.0625 C-6.3125 0.4025 -6.3125 -0.2575 -6.3125 -0.9375 C-21.78201886 -6.68723268 -36.23911333 -4.86371712 -47.3125 8.0625 Z " fill="#AB8D48" transform="translate(121.3125,39.9375)"/>
<path d="M0 0 C6.55929982 4.51862877 12.47346726 9.02303701 14.8125 16.9375 C15.86870965 23.85749427 14.45508281 30.14827924 10.453125 35.88671875 C6.57872054 40.64983969 3.21359077 43.45728185 -2.9375 44.6875 C-4.01 44.77 -5.0825 44.8525 -6.1875 44.9375 C-6.6825 44.4425 -6.6825 44.4425 -7.1875 43.9375 C-8.91749209 43.96991893 -10.64685719 44.03870947 -12.375 44.125 C-17.55145656 44.1584829 -20.24129115 43.50787943 -24.1875 39.9375 C-30.57568697 33.2589409 -31.72660759 27.14456678 -31.5625 18.12890625 C-30.72090753 10.96660368 -26.35068539 6.65547257 -21.03125 2.1640625 C-14.70185886 -2.04659177 -7.11493857 -2.37164619 0 0 Z M-19.875 6.6875 C-20.64199219 7.56921875 -21.40898438 8.4509375 -22.19921875 9.359375 C-26.97185719 15.54786492 -27.08801218 21.24562516 -26.1875 28.9375 C-24.38614759 33.60171607 -20.81607673 37.02946163 -16.3359375 39.26953125 C-10.88728436 40.96356704 -5.02256333 41.2378613 0.22265625 38.83203125 C4.83264125 35.61796694 7.70239586 32.12483933 9.8125 26.9375 C10.78143875 21.34591599 9.93367166 16.65312516 7.13671875 11.7265625 C2.9064988 6.01139808 -2.46712801 4.32792179 -9.1875 2.9375 C-9.5175 2.6075 -9.8475 2.2775 -10.1875 1.9375 C-15.15941424 1.15020893 -16.74174287 3.00632185 -19.875 6.6875 Z " fill="#433F37" transform="translate(108.1875,44.0625)"/>
<path d="M0 0 C1.84765625 1.1171875 1.84765625 1.1171875 3.6875 2.4375 C4.38746094 2.93507813 5.08742187 3.43265625 5.80859375 3.9453125 C11.95706253 8.79639796 15.07079215 13.75639377 16.09765625 21.55078125 C16.49143613 30.14326013 14.72906693 36.5575229 9.21875 43.2109375 C4.93700856 47.34575644 -0.23048312 49.28617621 -5.73828125 51.359375 C-8.41840286 52.29069839 -8.41840286 52.29069839 -10.3125 54.4375 C-12.9375 54.5625 -12.9375 54.5625 -15.3125 54.4375 C-15.51875 53.81875 -15.725 53.2 -15.9375 52.5625 C-17.87078646 49.57469365 -19.95453262 49.51458388 -23.3125 48.4375 C-30.14833465 44.7786722 -33.47440193 39.46381007 -36.625 32.5625 C-38.43136546 24.35174789 -37.62970028 17.68230171 -33.3125 10.4375 C-26.21199878 -0.59046596 -12.32391141 -5.56876154 0 0 Z M-29.8671875 11.4375 C-34.22146791 17.46288262 -33.87277156 23.17175618 -33.3125 30.4375 C-32.01767948 36.45460712 -27.62174005 42.29663857 -22.46484375 45.6328125 C-19.78496978 46.63472545 -17.66529388 46.59796682 -14.8125 46.5 C-9.68692219 46.33806554 -9.68692219 46.33806554 -7.1796875 47.00390625 C-3.87813808 47.77058404 -1.13434014 46.0167511 1.6875 44.4375 C7.53702316 40.30842483 11.25115636 35.55146612 12.6875 28.4375 C13.43450038 21.92267697 12.6255501 16.76853059 8.6875 11.4375 C3.85416477 6.34265969 -0.74367344 2.024823 -7.92578125 1.1015625 C-18.05474108 0.95497842 -23.38836079 3.7231761 -29.8671875 11.4375 Z " fill="#AC8E48" transform="translate(110.3125,41.5625)"/>
<path d="M0 0 C2.46484375 0.3515625 2.46484375 0.3515625 5.46484375 2.3515625 C6.55796875 2.6403125 7.65109375 2.9290625 8.77734375 3.2265625 C14.27207646 4.90292163 17.97983282 6.99139409 20.83984375 12.0390625 C22.8127978 16.49893341 23.29773089 20.54510964 22.46484375 25.3515625 C20.05011763 31.28776421 16.36933712 35.62936101 10.46484375 38.3515625 C4.57149777 39.46052545 -0.76748753 39.24367873 -6.03515625 36.2265625 C-9.48855405 33.62212499 -11.79961431 31.40116037 -13.53515625 27.3515625 C-14.24111063 21.58626841 -14.47984535 16.35430338 -11.97265625 11.0390625 C-11.16828125 10.1521875 -10.36390625 9.2653125 -9.53515625 8.3515625 C-8.99117188 7.64902344 -8.4471875 6.94648437 -7.88671875 6.22265625 C-3.29409553 0.45680832 -3.29409553 0.45680832 0 0 Z M4.46484375 6.3515625 C4.13484375 7.0115625 3.80484375 7.6715625 3.46484375 8.3515625 C2.24796875 8.2278125 1.03109375 8.1040625 -0.22265625 7.9765625 C-2.82033516 7.95813925 -4.08165523 7.99492578 -6.14453125 9.6171875 C-9.6710898 13.89054668 -10.8401714 16.72730009 -10.75 22.2578125 C-10.2795127 26.84292509 -8.32272155 29.64083284 -4.97265625 32.6640625 C-0.83628333 35.52770529 2.50383003 35.86062174 7.46484375 35.3515625 C12.81224789 33.39770329 15.92102518 30.43919963 18.46484375 25.3515625 C19.00801948 20.4006493 18.98726324 16.45668065 16.83984375 11.9140625 C14.20219981 9.06818352 12.08835829 7.71038045 8.46484375 6.3515625 C7.14484375 6.3515625 5.82484375 6.3515625 4.46484375 6.3515625 Z " fill="#A88B47" transform="translate(95.53515625,45.6484375)"/>
<path d="M0 0 C3.47035034 2.4079982 4.74502985 3.80164032 5.625 7.9375 C4.80878094 11.93697341 3.38371049 14.71560559 0 17 C-3.17130127 17.79564676 -5.82618903 17.77568887 -9 17 C-11.72246943 14.87514581 -12.73121981 13.42877889 -13.37109375 10.02734375 C-13.57582272 6.7082529 -13.2198665 4.38237652 -11.5625 1.5 C-7.73473876 -0.74064073 -4.32011646 -0.8840096 0 0 Z " fill="#B9984B" transform="translate(104,58)"/>
<path d="M0 0 C0.33 0.99 0.66 1.98 1 3 C0.67 3.66 0.34 4.32 0 5 C-0.37155705 10.57335568 -0.24782829 14.23651851 3 19 C7.89392721 23.4164709 12.67814387 23.75012426 19 24 C18.67 24.99 18.34 25.98 18 27 C11.59135874 27.59096077 6.98734029 27.33890118 1.6953125 23.4609375 C-2.05977215 20.22498897 -3.78096644 17.85037729 -4.375 12.83203125 C-4.60571725 6.33589868 -4.60571725 6.33589868 -4 3 C-1.96875 1.10546875 -1.96875 1.10546875 0 0 Z " fill="#B19249" transform="translate(86,57)"/>
<path d="M0 0 C0.66 0.33 1.32 0.66 2 1 C1.58578031 5.83256305 -0.46413986 7.82679218 -4 11 C-2.081875 11.185625 -2.081875 11.185625 -0.125 11.375 C3.75 11.75 3.75 11.75 6 14 C4.35 14.33 2.7 14.66 1 15 C1 16.65 1 18.3 1 20 C2.65 20.33 4.3 20.66 6 21 C6 24.96 6 28.92 6 33 C4 29 4 29 3.0625 26.4375 C2.19116663 23.98856911 2.19116663 23.98856911 0.5 22.625 C-1 21 -1 21 -2 17.4375 C-2.67139937 13.75396564 -2.67139937 13.75396564 -6 12 C-5.67 9.36 -5.34 6.72 -5 4 C-7.64 3.67 -10.28 3.34 -13 3 C-13 2.67 -13 2.34 -13 2 C-12.14535156 1.93941406 -11.29070313 1.87882812 -10.41015625 1.81640625 C-8.75306641 1.69072266 -8.75306641 1.69072266 -7.0625 1.5625 C-5.96035156 1.48128906 -4.85820313 1.40007812 -3.72265625 1.31640625 C-1.08890097 1.29581916 -1.08890097 1.29581916 0 0 Z " fill="#D4BB6D" transform="translate(45,113)"/>
<path d="M0 0 C3.0625 2.125 3.0625 2.125 5 5 C5.3125 8.3125 5.3125 8.3125 5 11 C4.67 11 4.34 11 4 11 C4 9.35 4 7.7 4 6 C3.34 6 2.68 6 2 6 C1.67 6.99 1.34 7.98 1 9 C0.34 8.01 -0.32 7.02 -1 6 C-5.68304146 5.4199793 -5.68304146 5.4199793 -9.8125 7.3125 C-10.89991036 8.85776736 -11.95187897 10.42781846 -13 12 C-13.47792208 4.83116883 -13.47792208 4.83116883 -11.5625 1.5 C-7.73473876 -0.74064073 -4.32011646 -0.8840096 0 0 Z " fill="#A78A47" transform="translate(104,58)"/>
<path d="M0 0 C1.33393774 0.66545647 2.66712423 1.332419 4 2 C5.08087891 2.53367187 5.08087891 2.53367187 6.18359375 3.078125 C11.29294219 5.73463199 14.82850426 8.13703986 18 13 C17.67 13.99 17.34 14.98 17 16 C16.175 15.2575 15.35 14.515 14.5 13.75 C12.06507761 11.69679941 9.69902072 10.27671756 6.8125 8.9375 C3.65436541 7.43995243 1.65602692 6.20855216 0 3 C0 2.01 0 1.02 0 0 Z " fill="#DEC26C" transform="translate(47,105)"/>
<path d="M0 0 C-0.33 0.66 -0.66 1.32 -1 2 C-1.66 2 -2.32 2 -3 2 C-2.731875 2.70125 -2.46375 3.4025 -2.1875 4.125 C-1.9716026 7.43542673 -2.34462574 7.86325197 -4.375 10.3125 C-5.24125 11.199375 -6.1075 12.08625 -7 13 C-7.33 13 -7.66 13 -8 13 C-8.103125 11.88625 -8.20625 10.7725 -8.3125 9.625 C-8.539375 8.42875 -8.76625 7.2325 -9 6 C-9.99 5.34 -10.98 4.68 -12 4 C-12 3.34 -12 2.68 -12 2 C-8.09971775 -0.60018816 -4.52565431 -0.15085514 0 0 Z " fill="#C4A456" transform="translate(54,80)"/>
<path d="M0 0 C0.33 0.66 0.66 1.32 1 2 C0.26120355 3.56769003 -0.5435151 5.10443922 -1.375 6.625 C-4.87059504 13.89699966 -4.89067926 21.07921539 -5 29 C-5.66 28.67 -6.32 28.34 -7 28 C-7.39473684 9.92982456 -7.39473684 9.92982456 -5 4 C-2.375 1.5 -2.375 1.5 0 0 Z " fill="#B9984B" transform="translate(74,46)"/>
<path d="M0 0 C0.66 0.66 1.32 1.32 2 2 C4.00693006 1.80217135 4.00693006 1.80217135 6.125 1.125 C6.84945312 0.92132813 7.57390625 0.71765625 8.3203125 0.5078125 C8.87460938 0.34023437 9.42890625 0.17265625 10 0 C10.125 2.375 10.125 2.375 10 5 C9.34 5.66 8.68 6.32 8 7 C7.01 7 6.02 7 5 7 C4.67 7.66 4.34 8.32 4 9 C0.06153846 5.67692308 0.06153846 5.67692308 -0.25 2.25 C-0.1675 1.5075 -0.085 0.765 0 0 Z " fill="#9E8346" transform="translate(127,69)"/>
<path d="M0 0 C0.66 0.33 1.32 0.66 2 1 C1.3503125 1.5878125 1.3503125 1.5878125 0.6875 2.1875 C-1.12512666 3.98638626 -1.12512666 3.98638626 -2.375 6.5 C-4.61909733 9.95245744 -7.40368163 11.20184082 -11 13 C-9.66342976 10.09663689 -8.15277429 7.7897189 -6.0625 5.375 C-5.55847656 4.78460938 -5.05445312 4.19421875 -4.53515625 3.5859375 C-3 2 -3 2 0 0 Z " fill="#A58947" transform="translate(81,37)"/>
<path d="M0 0 C5.94 0.66 11.88 1.32 18 2 C14.24945937 3.87527032 12.96379593 4.27416949 9 4.25 C7.7315625 4.25773437 7.7315625 4.25773437 6.4375 4.265625 C3.86521189 3.98531155 2.2196892 3.2948187 0 2 C0 1.34 0 0.68 0 0 Z " fill="#B8974B" transform="translate(88,96)"/>
<path d="M0 0 C0.33 0 0.66 0 1 0 C1.33 2.64 1.66 5.28 2 8 C2.33 5.69 2.66 3.38 3 1 C3.33 1 3.66 1 4 1 C4.33 5.29 4.66 9.58 5 14 C4.34 14 3.68 14 3 14 C2.67 14.66 2.34 15.32 2 16 C-0.27141454 10.60539047 -0.20413361 5.73842251 0 0 Z " fill="#9F8446" transform="translate(73,61)"/>
<path d="M0 0 C1.32 0.33 2.64 0.66 4 1 C2.68 1.99 1.36 2.98 0 4 C0.66 4.66 1.32 5.32 2 6 C-1.04225031 6.07075001 -3.66914269 6.0866531 -6.625 5.3125 C-9.11086172 4.73002291 -9.11086172 4.73002291 -11.3125 6.4375 C-11.869375 6.953125 -12.42625 7.46875 -13 8 C-12.05275873 5.63189682 -11.34708866 4.24792047 -9.25 2.75 C-6.42246362 1.80748787 -3.96006696 1.8654515 -1 2 C-0.67 1.34 -0.34 0.68 0 0 Z " fill="#564E3A" transform="translate(100,52)"/>
<path d="M0 0 C1.89685547 0.05220703 1.89685547 0.05220703 3.83203125 0.10546875 C5.74048828 0.14607422 5.74048828 0.14607422 7.6875 0.1875 C9.15123047 0.23970703 9.15123047 0.23970703 10.64453125 0.29296875 C10.97453125 1.28296875 11.30453125 2.27296875 11.64453125 3.29296875 C5.70453125 3.29296875 -0.23546875 3.29296875 -6.35546875 3.29296875 C-3.35546875 0.29296875 -3.35546875 0.29296875 0 0 Z " fill="#B7964A" transform="translate(97.35546875,40.70703125)"/>
<path d="M0 0 C1.76923828 0.01353516 1.76923828 0.01353516 3.57421875 0.02734375 C4.47785156 0.03894531 5.38148437 0.05054688 6.3125 0.0625 C6.3125 0.3925 6.3125 0.7225 6.3125 1.0625 C5.5390625 1.06507812 4.765625 1.06765625 3.96875 1.0703125 C-3.69065749 1.35469644 -8.13626265 2.72351585 -13.6875 8.0625 C-13.6875 5.0625 -13.6875 5.0625 -11.875 2.9375 C-8.09050796 -0.30635032 -4.80344176 -0.04755883 0 0 Z " fill="#9B8145" transform="translate(99.6875,39.9375)"/>
<path d="M0 0 C2.2578125 1.01171875 2.2578125 1.01171875 4 2 C2.10507994 2.33848652 0.20901534 2.67056911 -1.6875 3 C-2.74324219 3.185625 -3.79898438 3.37125 -4.88671875 3.5625 C-7.64904062 3.95068074 -10.21742043 4.08259976 -13 4 C-9.0634136 -0.11552215 -5.64502543 -0.62840849 0 0 Z " fill="#B7964B" transform="translate(101,33)"/>
<path d="M0 0 C2.22189824 2.22189824 2.92598892 4.08482708 4 7 C-0.75 8 -0.75 8 -3 8 C-3.33 8.66 -3.66 9.32 -4 10 C-4 8.68 -4 7.36 -4 6 C-3.34 5.67 -2.68 5.34 -2 5 C-1.27840576 3.35636866 -0.60648579 1.68949614 0 0 Z " fill="#B6964A" transform="translate(132,63)"/>
<path d="M0 0 C3.4375 0.25 3.4375 0.25 7 1 C7.66 1.99 8.32 2.98 9 4 C8.67 4.99 8.34 5.98 8 7 C7.34 6.01 6.68 5.02 6 4 C1.34854408 3.61975225 1.34854408 3.61975225 -3 5 C-1.125 1.125 -1.125 1.125 0 0 Z " fill="#5F543A" transform="translate(97,60)"/>
<path d="M0 0 C0.66 0.33 1.32 0.66 2 1 C-2.29 5.29 -6.58 9.58 -11 14 C-11 9.40845608 -8.09282279 7.18698368 -5 4 C-3.3719908 2.61973133 -1.71956118 1.26438322 0 0 Z " fill="#BCAB71" transform="translate(55,26)"/>
<path d="M0 0 C2.13586678 3.20380017 2.23132175 4.01939967 2.125 7.6875 C2.10695312 8.49574219 2.08890625 9.30398437 2.0703125 10.13671875 C2.04710937 10.75160156 2.02390625 11.36648437 2 12 C1.34 12 0.68 12 0 12 C-1.1671568 8.49852959 -1.13357453 5.67329964 -1 2 C-0.67 1.34 -0.34 0.68 0 0 Z " fill="#393836" transform="translate(127,56)"/>
<path d="M0 0 C2.31 0.33 4.62 0.66 7 1 C7 4.96 7 8.92 7 13 C5 9 5 9 4.0625 6.5 C2.9935421 3.98480493 1.71972638 2.11057328 0 0 Z " fill="#C0AE72" transform="translate(44,133)"/>
<path d="M0 0 C-1.55603771 3.81936528 -3.95604931 6.26044438 -7 9 C-7.66 9 -8.32 9 -9 9 C-7.45665977 5.21180126 -4.44676575 0 0 0 Z " fill="#5A5441" transform="translate(77,35)"/>
<path d="M0 0 C0.33 0.66 0.66 1.32 1 2 C0.06553465 4.03144641 -0.93224776 6.03533587 -2 8 C-3.32 8 -4.64 8 -6 8 C-5.65120368 4.74456771 -4.97866739 3.98126893 -2.4375 1.75 C-1.633125 1.1725 -0.82875 0.595 0 0 Z " fill="#B09149" transform="translate(74,46)"/>
<path d="M0 0 C0.33 0 0.66 0 1 0 C1 2.31 1 4.62 1 7 C2.65 7 4.3 7 6 7 C5.34 7.66 4.68 8.32 4 9 C1.375 8.625 1.375 8.625 -1 8 C-0.67 5.36 -0.34 2.72 0 0 Z " fill="#BDA864" transform="translate(40,117)"/>
<path d="M0 0 C1.39195915 4.17587745 -0.17676781 6.13474776 -2 10 C-2.33 10 -2.66 10 -3 10 C-3.36923077 3.47692308 -3.36923077 3.47692308 -1.5 1.0625 C-1.005 0.711875 -0.51 0.36125 0 0 Z " fill="#B9984B" transform="translate(86,57)"/>
<path d="M0 0 C0.99 0.33 1.98 0.66 3 1 C3 3.31 3 5.62 3 8 C2.34 7.67 1.68 7.34 1 7 C0.59270772 4.67843403 0.25561323 2.3431213 0 0 Z " fill="#B9984B" transform="translate(129,55)"/>
<path d="M0 0 C0.99 0.33 1.98 0.66 3 1 C0.69 3.31 -1.62 5.62 -4 8 C-4 4.09161134 -2.49432124 2.88405893 0 0 Z " fill="#DFC471" transform="translate(80,17)"/>
</svg>
